<svg width="84" height="84" viewBox="0 0 84 84" fill="none" xmlns="http://www.w3.org/2000/svg">
<g clip-path="url(#clip0_49_58)">
<path fill-rule="evenodd" clip-rule="evenodd" d="M44.73 76.125V67.9586C44.73 66.5096 43.554 65.3336 42.105 65.3336C40.656 65.3336 39.48 66.5096 39.48 67.9586V76.125C39.48 77.574 40.656 78.75 42.105 78.75C43.554 78.75 44.73 77.574 44.73 76.125ZM58.6766 62.1836L64.449 67.956C65.4754 68.9824 67.137 68.9824 68.1634 67.956C69.1871 66.9322 69.1871 65.268 68.1634 64.2442L62.3884 58.4692C61.3646 57.4455 59.7004 57.4455 58.6766 58.4692C57.6502 59.4956 57.6502 61.1572 58.6766 62.1836ZM19.761 67.956L25.536 62.1836C26.5597 61.1572 26.5597 59.4956 25.536 58.4692C24.5122 57.4455 22.848 57.4455 21.8242 58.4692L16.0492 64.2442C15.0255 65.268 15.0255 66.9322 16.0492 67.956C17.073 68.9824 18.7372 68.9824 19.761 67.956ZM42.0367 23.625C31.815 23.625 23.5147 31.9252 23.5147 42.1496C23.5147 52.3713 31.815 60.6716 42.0367 60.6716C52.2611 60.6716 60.5614 52.3713 60.5614 42.1496C60.5614 31.9252 52.2611 23.625 42.0367 23.625ZM68.1634 44.5252H76.3297C77.7787 44.5252 78.9547 43.3492 78.9547 41.9002C78.9547 40.4512 77.7787 39.2752 76.3297 39.2752H68.1634C66.7144 39.2752 65.5384 40.4512 65.5384 41.9002C65.5384 43.3492 66.7144 44.5252 68.1634 44.5252ZM7.88025 44.5252H16.0466C17.4956 44.5252 18.6716 43.3492 18.6716 41.9002C18.6716 40.4512 17.4956 39.2752 16.0466 39.2752H7.88025C6.43125 39.2752 5.25525 40.4512 5.25525 41.9002C5.25525 43.3492 6.43125 44.5252 7.88025 44.5252ZM16.0492 19.5562L21.8242 25.3312C22.848 26.355 24.5122 26.355 25.536 25.3312C26.5597 24.3049 26.5597 22.6432 25.536 21.6169L19.761 15.8445C18.7372 14.8181 17.073 14.8181 16.0492 15.8445C15.0255 16.8682 15.0255 18.5325 16.0492 19.5562ZM62.3884 25.3312L68.1634 19.5562C69.1871 18.5325 69.1871 16.8682 68.1634 15.8445C67.137 14.8181 65.4754 14.8181 64.449 15.8445L58.6766 21.6169C57.6502 22.6432 57.6502 24.3049 58.6766 25.3312C59.7004 26.355 61.3646 26.355 62.3884 25.3312ZM44.73 15.8419V7.67548C44.73 6.22648 43.554 5.05048 42.105 5.05048C40.656 5.05048 39.48 6.22648 39.48 7.67548V15.8419C39.48 17.2909 40.656 18.4669 42.105 18.4669C43.554 18.4669 44.73 17.2909 44.73 15.8419Z" fill="white"/>
</g>
<defs>
<clipPath id="clip0_49_58">
<rect width="84" height="84" fill="white"/>
</clipPath>
</defs>
</svg>
